<svg xmlns="http://www.w3.org/2000/svg" viewBox="0 0 1000 184.06"><style>.header {fill: #00a295;}</style><g><g><path class="header" d="M183.11,100.58c-14.41,4.46-47.04,14.46-70.52,14.46c-28.56,0,6.82-37.15-15.16-37.15c-29.57,0-81.29,30.82-93.22,37.54C1.6,116.9,0,119.66,0,122.65v22.6v38.81l27.2-38.81h147.72c7.04,0,12.74-5.7,12.74-12.74v-28.58C187.66,101.57,185.37,99.88,183.11,100.58z"/><path class="header" d="M174.92,10.03H93.83l-68.91,0.28C23.92,4.48,18.84,0,12.74,0C5.92,0,0.34,5.58,0.34,12.4v41.21c0,0.04,0.01,0.08,0.01,0.13L0.34,78.58c0.01,3.05,3.3,4.95,5.95,3.44c18.59-10.61,76.84-42.04,114.73-42.04c29.48,0-16.01,38.04,13.6,38.04c17.62,0,39.84-6.18,48.9-10.31c2.52-1.15,4.13-3.66,4.13-6.42V22.77C187.66,15.74,181.95,10.03,174.92,10.03z"/></g><g><path class="header" d="M258.44,146.75V9.12h30.31v12.92c8.94-10.76,20.87-16.15,35.77-16.15c9.6,0,17.55,1.66,23.85,4.97c6.29,3.31,11.84,8.78,16.64,16.4c10.76-14.24,25.42-21.36,43.97-21.36c37.26,0,55.9,20.46,55.9,61.36v79.5h-33.04V71.23c0-12.25-2.03-21.16-6.09-26.71c-4.06-5.55-10.64-8.32-19.75-8.32c-9.94,0-17.06,3.27-21.36,9.81c-4.31,6.54-6.46,17.51-6.46,32.92v67.82h-33.04V71.23c0-12.25-2.11-21.16-6.34-26.71c-4.22-5.55-10.97-8.32-20.25-8.32c-9.94,0-16.94,3.19-20.99,9.56c-4.06,6.38-6.09,17.43-6.09,33.17v67.82H258.44z"/><path class="header" d="M620.9,92.59H514.32c1.99,8.28,6.33,14.87,13.04,19.75c6.71,4.89,15.03,7.33,24.97,7.33c6.96,0,12.67-0.99,17.14-2.98c4.47-1.99,8.86-5.55,13.17-10.68h36.02c-4.14,12.92-12.34,23.48-24.59,31.68c-12.26,8.2-25.92,12.3-40.99,12.3c-20.87,0-38.51-6.87-52.91-20.62c-14.41-13.75-21.61-30.72-21.61-50.93c0-20.2,7.04-37.35,21.12-51.42c14.07-14.08,31.22-21.12,51.43-21.12c20.53,0,37.51,6.96,50.93,20.87c13.42,13.91,20.12,31.64,20.12,53.16C622.14,84.4,621.73,88.62,620.9,92.59z M513.33,63.53h76.27c-4.31-18.22-16.89-27.33-37.76-27.33C531.46,36.2,518.63,45.31,513.33,63.53z"/><path class="header" d="M772.44,92.59H665.86c1.99,8.28,6.33,14.87,13.04,19.75c6.71,4.89,15.03,7.33,24.97,7.33c6.96,0,12.67-0.99,17.14-2.98c4.47-1.99,8.86-5.55,13.17-10.68h36.02c-4.14,12.92-12.34,23.48-24.59,31.68c-12.26,8.2-25.92,12.3-40.99,12.3c-20.87,0-38.51-6.87-52.91-20.62c-14.41-13.75-21.61-30.72-21.61-50.93c0-20.2,7.04-37.35,21.12-51.42c14.07-14.08,31.22-21.12,51.43-21.12c20.53,0,37.51,6.96,50.93,20.87c13.42,13.91,20.12,31.64,20.12,53.16C773.68,84.4,773.27,88.62,772.44,92.59z M664.87,63.53h76.27c-4.31-18.22-16.89-27.33-37.76-27.33C683,36.2,670.17,45.31,664.87,63.53z"/><path class="header" d="M787.59,146.75V9.12h30.31v13.41c4.31-6.29,8.61-10.64,12.92-13.04c4.31-2.4,9.85-3.6,16.64-3.6h2.73v31.8c-19.71,0-29.56,10.85-29.56,32.54v76.52H787.59z"/><path class="header" d="M926.71,5.89c20.53,0,37.89,7,52.05,20.99c14.16,14,21.24,31.1,21.24,51.3c0,19.71-7.12,36.6-21.36,50.68c-14.25,14.08-31.47,21.12-51.67,21.12c-20.21,0-37.47-6.99-51.8-20.99c-14.33-13.99-21.49-31.01-21.49-51.05c0-19.88,7.12-36.85,21.36-50.93C889.28,12.93,906.5,5.89,926.71,5.89z M926.71,36.2c-11,0-20.42,4.06-28.25,12.17c-7.83,8.12-11.75,17.97-11.75,29.56c0,11.59,3.91,21.45,11.75,29.56c7.83,8.12,17.25,12.17,28.25,12.17c11.16,0,20.66-4.06,28.5-12.17c7.83-8.11,11.75-17.97,11.75-29.56c0-11.59-3.92-21.45-11.75-29.56C947.38,40.26,937.88,36.2,926.71,36.2z"/></g></g></svg>
